<?xml version="1.0" encoding="UTF-8" standalone="no"?>
<svg
   aria-hidden="true"
   role="img"
   class="iconify iconify--logos"
   width="34"
   height="31.242001"
   preserveAspectRatio="xMidYMid"
   viewBox="0 0 273.02385 250.91232"
   version="1.1"
   id="svg6"
   sodipodi:docname="icon.svg"
   inkscape:version="1.4.3 (0d15f75, 2025-12-25)"
   xmlns:inkscape="http://www.inkscape.org/namespaces/inkscape"
   xmlns:sodipodi="http://sodipodi.sourceforge.net/DTD/sodipodi-0.dtd"
   xmlns="http://www.w3.org/2000/svg"
   xmlns:svg="http://www.w3.org/2000/svg">
  <sodipodi:namedview
     id="namedview6"
     pagecolor="#ffffff"
     bordercolor="#000000"
     borderopacity="0.25"
     inkscape:showpageshadow="2"
     inkscape:pageopacity="0.0"
     inkscape:pagecheckerboard="0"
     inkscape:deskcolor="#d1d1d1"
     inkscape:zoom="11.15031"
     inkscape:cx="13.721592"
     inkscape:cy="28.519386"
     inkscape:window-width="1663"
     inkscape:window-height="1186"
     inkscape:window-x="0"
     inkscape:window-y="25"
     inkscape:window-maximized="0"
     inkscape:current-layer="svg6" />
  <defs
     id="defs5">
    <linearGradient
       id="IconifyId1813088fe1fbc01fb466"
       x1="-0.0082799997"
       x2="0.57635999"
       y1="0.076519996"
       y2="0.78411001">
      <stop
         offset="0%"
         stop-color="#41D1FF"
         id="stop1" />
      <stop
         offset="100%"
         stop-color="#BD34FE"
         id="stop2" />
    </linearGradient>
    <linearGradient
       id="IconifyId1813088fe1fbc01fb467"
       x1="0.43375999"
       x2="0.50316"
       y1="0.02242"
       y2="0.89029998">
      <stop
         offset="0%"
         stop-color="#FFEA83"
         id="stop3" />
      <stop
         offset="8.333%"
         stop-color="#FFDD35"
         id="stop4" />
      <stop
         offset="100%"
         stop-color="#FFA800"
         id="stop5" />
    </linearGradient>
  </defs>
  <g
     transform="matrix(0.52862864,0,0,0.52862339,-139.17255,-156.16278)"
     id="g4">
    <g
       id="path3"
       style="opacity:1">
      <path
         style="baseline-shift:baseline;display:inline;overflow:visible;vector-effect:none;fill:#f61e6d;stroke-linejoin:round;enable-background:accumulate;stop-color:#000000;stop-opacity:1"
         d="m 410.77148,295.41406 c -81.97983,0 -147.5371,68.95823 -147.53711,152.87696 0,52.37481 18.21679,97.93226 63.25196,149.77539 36.7685,42.32707 91.26896,90.91159 171.6582,159.15429 l 8.30469,7.2168 c 8.6371,7.50516 21.48204,7.50516 30.11914,0 l 8.10351,-7.04297 0.10547,-0.0918 0.0957,-0.082 c 89.38905,-75.88255 146.80569,-127.39288 183.34961,-173.16406 36.57398,-45.80885 51.56054,-88.17825 51.56054,-135.76562 0,-83.91868 -65.55718,-152.87696 -147.53711,-152.87696 -51.50226,0 -86.77547,24.76248 -110.73632,48.43555 -23.96075,-23.67294 -59.23641,-48.43555 -110.73829,-48.43555 z"
         id="path6"
         sodipodi:nodetypes="sscccccccssscss" />
    </g>
    <path
       style="baseline-shift:baseline;display:inline;overflow:visible;opacity:1;vector-effect:none;fill:#ffffff;stroke-linecap:round;stroke-linejoin:round;enable-background:accumulate;stop-color:#000000;stop-opacity:1"
       d="m 613.33984,438.90039 a 34.436249,34.436249 0 0 0 -24.34961,10.08594 l -67.48046,67.47656 -21.56641,-21.56445 a 34.436249,34.436249 0 0 0 -48.69922,0.002 34.436249,34.436249 0 0 0 0,48.69922 l 45.91602,45.91406 a 34.439692,34.439692 0 0 0 48.69921,0 l 91.83008,-91.82617 a 34.436249,34.436249 0 0 0 0.002,-48.70117 34.436249,34.436249 0 0 0 -24.35157,-10.08594 z"
       id="path4" />
  </g>
</svg>
