<svg
  width="600"
  height="130"
  viewBox="0 0 158.75 34.395833"
  aria-label="LoveLust"
  xmlns="http://www.w3.org/2000/svg">
  <g transform="translate(-0.37198013,0.06701528)">
    <g transform="matrix(0.03953374,0,0,0.03953374,10.455111,-0.07873365)">
      <path
        fill="#f61e6d"
        d="m 410.77148,295.41406 c -81.97983,0 -147.5371,68.95823 -147.53711,152.87696 0,52.37481 18.21679,97.93226 63.25196,149.77539 36.7685,42.32707 91.26896,90.91159 171.6582,159.15429 l 8.30469,7.2168 c 8.6371,7.50516 21.48204,7.50516 30.11914,0 l 8.10351,-7.04297 0.10547,-0.0918 0.0957,-0.082 c 89.38905,-75.88255 146.80569,-127.39288 183.34961,-173.16406 36.57398,-45.80885 51.56054,-88.17825 51.56054,-135.76562 0,-83.91868 -65.55718,-152.87696 -147.53711,-152.87696 -51.50226,0 -86.77547,24.76248 -110.73632,48.43555 -23.96075,-23.67294 -59.23641,-48.43555 -110.73829,-48.43555 z" />
      <path
        fill="#ffffff"
        d="m 613.33984,438.90039 a 34.436249,34.436249 0 0 0 -24.34961,10.08594 l -67.48046,67.47656 -21.56641,-21.56445 a 34.436249,34.436249 0 0 0 -48.69922,0.002 34.436249,34.436249 0 0 0 0,48.69922 l 45.91602,45.91406 a 34.439692,34.439692 0 0 0 48.69921,0 l 91.83008,-91.82617 a 34.436249,34.436249 0 0 0 0.002,-48.70117 34.436249,34.436249 0 0 0 -24.35157,-10.08594 z" />
    </g>
    <g>
      <path
        fill="currentColor"
        d="m 85.697677,29.963287 q -1.75236,0 -2.592032,-0.949195 Q 82.30248,28.02839 82.558032,26.312537 L 85.624662,7.00007 q 0.255553,-1.5698224 1.16824,-2.3364799 0.912688,-0.7666575 2.48251,-0.7666575 1.679345,0 2.48251,0.949195 0.803165,0.949195 0.511105,2.7015549 L 89.60398,24.37764 h 8.396725 q 1.387285,0 2.153945,0.58412 0.80316,0.58412 0.80316,1.679345 0,1.533315 -0.91269,2.446002 -0.876175,0.87618 -2.445998,0.87618 z m 23.255233,0.401583 q -1.89839,0 -3.28567,-0.803165 -1.35078,-0.803165 -1.9349,-2.519018 -0.54761,-1.715852 -0.14603,-4.417407 l 1.27776,-7.958635 q 0.25555,-1.533315 1.13173,-2.263465 0.87618,-0.73015 2.37299,-0.73015 1.67935,0 2.4095,0.912687 0.76665,0.912688 0.5111,2.62854 l -1.16824,7.3015 q -0.18254,1.423793 0.21905,2.153943 0.40158,0.73015 1.56982,0.73015 1.42379,0 2.37298,-1.02221 0.9492,-1.02221 1.24126,-2.847585 l 1.09522,-6.86341 q 0.25556,-1.533315 1.13174,-2.263465 0.87618,-0.73015 2.37298,-0.73015 1.64284,0 2.37299,0.912687 0.76666,0.912688 0.51111,2.62854 l -1.89839,12.083983 q -0.4746,2.993615 -3.50472,2.993615 -1.53332,0 -2.22696,-0.766658 -0.69364,-0.803165 -0.43809,-2.519017 l 0.29206,-1.971405 -0.0365,1.60633 q -0.9857,1.89839 -2.62854,2.811077 -1.60633,0.912688 -3.61424,0.912688 z m 23.4013,0 q -1.67934,0 -3.28567,-0.29206 -1.60633,-0.29206 -2.77457,-0.73015 -0.98571,-0.365075 -1.4238,-1.02221 -0.40158,-0.657135 -0.36507,-1.387285 0.0365,-0.73015 0.43809,-1.277763 0.40158,-0.547612 1.09522,-0.766657 0.73015,-0.255553 1.64284,0.109522 1.13173,0.474598 2.33648,0.73015 1.20475,0.255553 2.29997,0.255553 1.4238,0 2.08093,-0.43809 0.65714,-0.43809 0.65714,-1.095225 0,-0.511105 -0.36508,-0.766658 -0.32857,-0.29206 -1.13173,-0.401582 l -3.24917,-0.547613 q -2.26346,-0.365075 -3.50472,-1.60633 -1.20475,-1.277762 -1.20475,-3.139645 0,-1.679345 0.98571,-3.139645 1.02221,-1.4603 2.99361,-2.33648 2.00791,-0.912687 5.00153,-0.912687 1.09522,0 2.40949,0.219045 1.35078,0.219045 2.44601,0.693642 0.9857,0.365075 1.38728,1.02221 0.43809,0.620628 0.36508,1.31427 -0.0365,0.693643 -0.43809,1.241255 -0.40159,0.511105 -1.13174,0.73015 -0.73015,0.219045 -1.64283,-0.109522 -0.83968,-0.365075 -1.86189,-0.547613 -0.9857,-0.219045 -1.89839,-0.219045 -1.4968,0 -2.19045,0.474598 -0.69364,0.43809 -0.69364,1.16824 0,0.401582 0.25555,0.693642 0.29206,0.29206 0.9492,0.401583 l 3.24917,0.511105 q 2.51901,0.43809 3.76027,1.679345 1.24125,1.241255 1.24125,3.103137 0,3.139645 -2.29997,4.782483 -2.29997,1.60633 -6.13326,1.60633 z m 19.86012,0 q -2.77457,0 -4.52693,-0.985703 -1.75236,-0.985702 -2.446,-2.738062 -0.65713,-1.75236 -0.32857,-4.015825 l 0.9492,-5.8412 h -0.80317 q -1.20474,0 -1.89839,-0.511105 -0.65713,-0.547613 -0.65713,-1.533315 0,-1.31427 0.83967,-2.007913 0.87618,-0.730149 2.37299,-0.730149 h 0.91269 l 0.40158,-2.5555255 q 0.25555,-1.4968075 1.13173,-2.2269575 0.87618,-0.7666574 2.37299,-0.7666574 1.67934,0 2.40949,0.9126874 0.73015,0.9126875 0.4746,2.62854 l -0.29206,2.007913 h 2.62854 q 1.20475,0 1.89839,0.511104 0.69364,0.474598 0.69364,1.496808 0,1.16824 -0.80316,1.971405 -0.76666,0.803165 -2.11744,0.803165 h -3.06663 l -0.91268,5.585647 q -0.21905,1.496808 0.36507,2.153943 0.62063,0.620627 1.71585,0.620627 0.54762,0 0.91269,-0.07302 0.36508,-0.109522 0.80317,-0.109522 0.69364,0 0.9857,0.365075 0.32857,0.365075 0.32857,1.423792 0,1.788868 -0.62063,2.48251 -0.62063,0.693643 -1.56982,0.912688 -0.51111,0.109522 -1.09523,0.14603 -0.54761,0.07301 -1.05872,0.07301 z" />
      <path
        fill="#f61e6d"
        d="m 4.541567,29.963287 c -1.0708867,0 -1.9105592,-0.29206 -2.5190175,-0.87618 -0.58412,-0.608458 -0.87618,-1.44813 -0.87618,-2.519017 V 7.58419 c 0,-1.0952249 0.29206,-1.9348974 0.87618,-2.5190174 0.58412,-0.58412 1.4116233,-0.87618 2.48251,-0.87618 1.095225,0 1.9227283,0.29206 2.48251,0.87618 0.58412,0.58412 0.87618,1.4237925 0.87618,2.5190174 v 16.79345 h 8.9078295 c 0.924857,0 1.630668,0.243383 2.117435,0.73015 0.511105,0.462428 0.766658,1.143901 0.766658,2.04442 0,0.900518 -0.255553,1.59416 -0.766658,2.080927 -0.486767,0.486767 -1.192578,0.73015 -2.117435,0.73015 z m 46.802567,0.328568 c -0.851842,0 -1.581992,-0.206876 -2.19045,-0.620628 -0.58412,-0.43809 -1.070887,-1.083056 -1.4603,-1.934897 L 42.472811,15.798377 c -0.29206,-0.73015 -0.389413,-1.411623 -0.29206,-2.04442 0.09735,-0.632797 0.401583,-1.131732 0.912688,-1.496807 0.535443,-0.389413 1.265593,-0.58412 2.19045,-0.58412 0.778827,0 1.399454,0.182538 1.861882,0.547613 0.486767,0.340736 0.924857,1.022209 1.31427,2.044419 l 3.687258,9.49195 h -1.241255 l 3.869795,-9.528457 c 0.389413,-0.997872 0.827503,-1.667176 1.31427,-2.007912 0.486767,-0.365075 1.156071,-0.547613 2.007912,-0.547613 0.73015,0 1.31427,0.194707 1.75236,0.58412 0.462429,0.365075 0.74232,0.86401 0.839673,1.496807 0.09735,0.632797 -0.02434,1.31427 -0.365075,2.04442 l -5.330095,11.97446 c -0.365075,0.851842 -0.851842,1.484639 -1.4603,1.89839 -0.58412,0.413752 -1.31427,0.620628 -2.19045,0.620628 z m 21.137818,0.07301 c -2.19045,0 -4.08884,-0.377244 -5.69517,-1.131733 -1.581992,-0.778827 -2.798909,-1.874052 -3.65075,-3.285675 -0.851842,-1.411623 -1.277763,-3.078799 -1.277763,-5.001527 0,-1.849713 0.401583,-3.468213 1.204748,-4.855498 0.827503,-1.411623 1.947067,-2.506848 3.35869,-3.285675 1.435961,-0.803165 3.06663,-1.204747 4.892005,-1.204747 1.338608,0 2.555525,0.219045 3.65075,0.657135 1.095225,0.413751 2.03225,1.034379 2.811077,1.861882 0.778827,0.803165 1.362947,1.776699 1.75236,2.9206 0.413752,1.143902 0.620628,2.421665 0.620628,3.833288 0,0.486767 -0.133861,0.851842 -0.401583,1.095225 -0.267721,0.219045 -0.693642,0.328567 -1.277762,0.328567 H 67.297887 v -3.06663 h 8.104665 l -0.58412,0.474598 c 0,-0.900519 -0.121692,-1.630669 -0.365075,-2.19045 -0.243383,-0.559782 -0.608458,-0.985703 -1.095225,-1.277763 -0.462429,-0.29206 -1.046549,-0.43809 -1.75236,-0.43809 -0.754489,0 -1.411624,0.182538 -1.971405,0.547613 -0.535443,0.340737 -0.949195,0.851842 -1.241255,1.533315 -0.29206,0.681473 -0.43809,1.533315 -0.43809,2.555525 v 0.328567 c 0,1.728022 0.377244,2.969277 1.131732,3.723765 0.778827,0.73015 1.971405,1.095225 3.577735,1.095225 0.535443,0 1.143902,-0.06085 1.825375,-0.182537 0.705812,-0.14603 1.375116,-0.340737 2.007913,-0.58412 0.632797,-0.243383 1.180409,-0.279891 1.642837,-0.109523 0.462429,0.14603 0.815335,0.413752 1.058718,0.803165 0.267721,0.365075 0.413751,0.790996 0.43809,1.277763 0.02434,0.462428 -0.08518,0.924856 -0.328568,1.387285 -0.243383,0.43809 -0.644966,0.778827 -1.204747,1.02221 -0.851842,0.389413 -1.76453,0.681473 -2.738063,0.87618 -0.949195,0.194707 -1.910559,0.29206 -2.884092,0.29206 z" />
    </g>
  </g>
</svg>
